<svg xmlns="http://www.w3.org/2000/svg" viewBox="0 0 1600 960" role="img" aria-labelledby="title desc">
  <title id="title">Flux 3x-ui Orchestrator dashboard preview</title>
  <desc id="desc">A Flux-style operations dashboard preview for multi-server 3x-ui, Snell, Xray, traffic, certificate and forwarding management.</desc>
  <defs>
    <style>
      .bg { fill: #eef2f5; }
      .shell { fill: #f8fafb; stroke: #d7dee7; stroke-width: 1; }
      .sidebar { fill: #101820; }
      .nav { fill: #1b2631; }
      .nav-active { fill: #d9f99d; }
      .ink { fill: #17212b; font-family: Segoe UI, Inter, Arial, sans-serif; }
      .muted { fill: #64748b; font-family: Segoe UI, Inter, Arial, sans-serif; }
      .inverse { fill: #f8fafc; font-family: Segoe UI, Inter, Arial, sans-serif; }
      .thin { fill: #94a3b8; font-family: Segoe UI, Inter, Arial, sans-serif; }
      .card { fill: #ffffff; stroke: #dce3eb; stroke-width: 1; }
      .panel { fill: #f8fafc; stroke: #e2e8f0; stroke-width: 1; }
      .line { stroke: #e2e8f0; stroke-width: 1; }
      .green { fill: #16a34a; }
      .green-soft { fill: #dcfce7; }
      .amber { fill: #d97706; }
      .amber-soft { fill: #fef3c7; }
      .red { fill: #dc2626; }
      .red-soft { fill: #fee2e2; }
      .blue { fill: #2563eb; }
      .blue-soft { fill: #dbeafe; }
      .slate-soft { fill: #e2e8f0; }
      .purple { fill: #7c3aed; }
      .purple-soft { fill: #ede9fe; }
      .mono { fill: #334155; font-family: Consolas, Menlo, monospace; }
    </style>
    <filter id="shadow" x="-15%" y="-15%" width="130%" height="130%">
      <feDropShadow dx="0" dy="18" stdDeviation="22" flood-color="#0f172a" flood-opacity="0.12"/>
    </filter>
  </defs>

  <rect class="bg" width="1600" height="960"/>
  <rect x="48" y="44" width="1504" height="872" rx="18" class="shell" filter="url(#shadow)"/>

  <rect x="48" y="44" width="238" height="872" rx="18" class="sidebar"/>
  <rect x="268" y="44" width="18" height="872" fill="#101820"/>
  <text x="84" y="102" class="inverse" font-size="27" font-weight="700">Flux</text>
  <text x="150" y="102" class="thin" font-size="17">3x-ui control</text>
  <rect x="82" y="142" width="166" height="36" rx="8" class="nav-active"/>
  <text x="110" y="166" class="ink" font-size="15" font-weight="700">Orchestrator</text>
  <rect x="82" y="194" width="166" height="36" rx="8" class="nav"/>
  <text x="110" y="218" class="thin" font-size="15">Servers</text>
  <rect x="82" y="246" width="166" height="36" rx="8" class="nav"/>
  <text x="110" y="270" class="thin" font-size="15">Protocol nodes</text>
  <rect x="82" y="298" width="166" height="36" rx="8" class="nav"/>
  <text x="110" y="322" class="thin" font-size="15">Rules</text>
  <rect x="82" y="350" width="166" height="36" rx="8" class="nav"/>
  <text x="110" y="374" class="thin" font-size="15">Deploy tasks</text>
  <rect x="82" y="786" width="166" height="74" rx="8" fill="#172331"/>
  <text x="105" y="816" class="inverse" font-size="14" font-weight="700">Agent channel</text>
  <text x="105" y="842" class="thin" font-size="13">claim/report healthy</text>

  <text x="328" y="98" class="ink" font-size="29" font-weight="750">Master control center</text>
  <text x="328" y="128" class="muted" font-size="15">One place for 3x-ui, Snell, Xray, Reality, traffic, certificates and remote forwards.</text>
  <rect x="1232" y="76" width="122" height="40" rx="8" class="blue"/>
  <text x="1262" y="101" class="inverse" font-size="14" font-weight="700">Orchestrate</text>
  <rect x="1366" y="76" width="116" height="40" rx="8" class="green-soft"/>
  <text x="1396" y="101" class="ink" font-size="14" font-weight="700">Add node</text>

  <g>
    <rect x="328" y="162" width="250" height="104" rx="8" class="card"/>
    <text x="354" y="198" class="muted" font-size="13">Servers online</text>
    <text x="354" y="235" class="ink" font-size="34" font-weight="800">12</text>
    <rect x="485" y="205" width="54" height="22" rx="11" class="green-soft"/>
    <text x="500" y="220" class="green" font-size="12" font-weight="700">OK</text>

    <rect x="602" y="162" width="250" height="104" rx="8" class="card"/>
    <text x="628" y="198" class="muted" font-size="13">Managed nodes</text>
    <text x="628" y="235" class="ink" font-size="34" font-weight="800">48</text>
    <rect x="741" y="205" width="70" height="22" rx="11" class="blue-soft"/>
    <text x="757" y="220" class="blue" font-size="12" font-weight="700">Xray</text>

    <rect x="876" y="162" width="250" height="104" rx="8" class="card"/>
    <text x="902" y="198" class="muted" font-size="13">Snell services</text>
    <text x="902" y="235" class="ink" font-size="34" font-weight="800">9</text>
    <rect x="1002" y="205" width="84" height="22" rx="11" class="purple-soft"/>
    <text x="1020" y="220" class="purple" font-size="12" font-weight="700">Agent</text>

    <rect x="1150" y="162" width="332" height="104" rx="8" class="card"/>
    <text x="1176" y="198" class="muted" font-size="13">Warnings</text>
    <text x="1176" y="235" class="ink" font-size="34" font-weight="800">3</text>
    <text x="1240" y="234" class="muted" font-size="13">cert expiry, traffic spike, failed task</text>
  </g>

  <g>
    <rect x="328" y="302" width="720" height="286" rx="8" class="card"/>
    <text x="354" y="338" class="ink" font-size="19" font-weight="750">Controlled servers</text>
    <text x="354" y="365" class="muted" font-size="13">Select one or many servers, then install 3x-ui, create protocols or run agent maintenance.</text>

    <rect x="354" y="394" width="318" height="158" rx="8" class="panel"/>
    <text x="378" y="426" class="ink" font-size="17" font-weight="750">oracle-sg-01</text>
    <rect x="544" y="407" width="60" height="23" rx="11" class="green-soft"/>
    <text x="561" y="423" class="green" font-size="12" font-weight="700">agent</text>
    <text x="378" y="458" class="muted" font-size="13">3x-ui active / Xray active / Snell active</text>
    <text x="378" y="484" class="mono" font-size="13">443 reality  8443 vmess-ws  6153 snell</text>
    <rect x="378" y="510" width="82" height="28" rx="7" class="blue-soft"/>
    <text x="397" y="529" class="blue" font-size="12" font-weight="700">Inbound</text>
    <rect x="472" y="510" width="76" height="28" rx="7" class="slate-soft"/>
    <text x="492" y="529" class="ink" font-size="12" font-weight="700">Traffic</text>
    <rect x="560" y="510" width="76" height="28" rx="7" class="slate-soft"/>
    <text x="580" y="529" class="ink" font-size="12" font-weight="700">Agent</text>

    <rect x="700" y="394" width="318" height="158" rx="8" class="panel"/>
    <text x="724" y="426" class="ink" font-size="17" font-weight="750">debian-la-02</text>
    <rect x="876" y="407" width="78" height="23" rx="11" class="amber-soft"/>
    <text x="895" y="423" class="amber" font-size="12" font-weight="700">warning</text>
    <text x="724" y="458" class="muted" font-size="13">3x-ui active / Xray active / cert renew soon</text>
    <text x="724" y="484" class="mono" font-size="13">2053 trojan  30080 forward  6200 snell</text>
    <rect x="724" y="510" width="94" height="28" rx="7" class="blue-soft"/>
    <text x="744" y="529" class="blue" font-size="12" font-weight="700">Rules</text>
    <rect x="830" y="510" width="82" height="28" rx="7" class="slate-soft"/>
    <text x="850" y="529" class="ink" font-size="12" font-weight="700">Logs</text>
    <rect x="924" y="510" width="58" height="28" rx="7" class="slate-soft"/>
    <text x="942" y="529" class="ink" font-size="12" font-weight="700">Fix</text>
  </g>

  <g>
    <rect x="1076" y="302" width="406" height="286" rx="8" class="card"/>
    <text x="1102" y="338" class="ink" font-size="19" font-weight="750">One-click orchestration</text>
    <text x="1102" y="365" class="muted" font-size="13">Task bundle generated for selected agents.</text>
    <rect x="1102" y="396" width="354" height="42" rx="8" class="panel"/>
    <text x="1124" y="422" class="ink" font-size="14" font-weight="700">Install and configure 3x-ui</text>
    <rect x="1410" y="407" width="22" height="22" rx="6" class="green"/>
    <rect x="1102" y="450" width="354" height="42" rx="8" class="panel"/>
    <text x="1124" y="476" class="ink" font-size="14" font-weight="700">Create VLESS Reality / VMess / Trojan</text>
    <rect x="1410" y="461" width="22" height="22" rx="6" class="green"/>
    <rect x="1102" y="504" width="354" height="42" rx="8" class="panel"/>
    <text x="1124" y="530" class="ink" font-size="14" font-weight="700">Install Snell as managed node</text>
    <rect x="1410" y="515" width="22" height="22" rx="6" class="green"/>
  </g>

  <g>
    <rect x="328" y="624" width="1154" height="238" rx="8" class="card"/>
    <text x="354" y="660" class="ink" font-size="19" font-weight="750">Unified rule view</text>
    <text x="354" y="687" class="muted" font-size="13">3x-ui inbound/outbound, Snell nodes and remote port forwards are shown as one operations table.</text>
    <line x1="354" y1="716" x2="1456" y2="716" class="line"/>
    <text x="370" y="747" class="muted" font-size="12" font-weight="700">TYPE</text>
    <text x="520" y="747" class="muted" font-size="12" font-weight="700">SERVER</text>
    <text x="718" y="747" class="muted" font-size="12" font-weight="700">ENDPOINT</text>
    <text x="990" y="747" class="muted" font-size="12" font-weight="700">TRAFFIC</text>
    <text x="1160" y="747" class="muted" font-size="12" font-weight="700">STATE</text>
    <text x="1290" y="747" class="muted" font-size="12" font-weight="700">ACTIONS</text>
    <line x1="354" y1="764" x2="1456" y2="764" class="line"/>

    <rect x="370" y="786" width="78" height="24" rx="12" class="blue-soft"/>
    <text x="390" y="803" class="blue" font-size="12" font-weight="700">3x-ui</text>
    <text x="520" y="804" class="ink" font-size="14">oracle-sg-01</text>
    <text x="718" y="804" class="mono" font-size="13">vless://443 reality</text>
    <text x="990" y="804" class="ink" font-size="14">128.4 GB</text>
    <rect x="1160" y="786" width="78" height="24" rx="12" class="green-soft"/>
    <text x="1181" y="803" class="green" font-size="12" font-weight="700">active</text>
    <text x="1290" y="804" class="muted" font-size="13">edit / sync / restart</text>

    <rect x="370" y="826" width="78" height="24" rx="12" class="purple-soft"/>
    <text x="389" y="843" class="purple" font-size="12" font-weight="700">Snell</text>
    <text x="520" y="844" class="ink" font-size="14">debian-la-02</text>
    <text x="718" y="844" class="mono" font-size="13">snell://6200 psk</text>
    <text x="990" y="844" class="ink" font-size="14">42.9 GB</text>
    <rect x="1160" y="826" width="78" height="24" rx="12" class="green-soft"/>
    <text x="1181" y="843" class="green" font-size="12" font-weight="700">active</text>
    <text x="1290" y="844" class="muted" font-size="13">edit / logs / upgrade</text>
  </g>
</svg>
